<?xml version="1.0" standalone="no"?><!DOCTYPE svg PUBLIC "-//W3C//DTD SVG 1.1//EN" "http://www.w3.org/Graphics/SVG/1.1/DTD/svg11.dtd"><svg t="1616841122198" class="icon" viewBox="0 0 1024 1024" version="1.1" xmlns="http://www.w3.org/2000/svg" p-id="1288" xmlns:xlink="http://www.w3.org/1999/xlink" width="200" height="200"><defs><style type="text/css"></style></defs><path d="M343.72962529 483.15349268H164.36783692A102.4892956 102.4892956 0 0 1 62 380.78565576V201.42386738a102.4892956 102.4892956 0 0 1 102.36783692-102.36783691h179.36178837a102.4892956 102.4892956 0 0 1 102.36783604 102.36783691v179.36178838a102.4892956 102.4892956 0 0 1-102.36783604 102.36783692zM164.36783692 139.99874873a61.50241055 61.50241055 0 0 0-61.42511866 61.42511865v179.36178838a61.50241055 61.50241055 0 0 0 61.42511865 61.42511866h179.36178838a61.50241055 61.50241055 0 0 0 61.42511866-61.42511866V201.42386738a61.50241055 61.50241055 0 0 0-61.42511866-61.42511865zM343.80691719 962H164.44512881A102.4892956 102.4892956 0 0 1 62.0772919 859.67632988V680.25933301a102.4892956 102.4892956 0 0 1 102.36783691-102.37887774h179.36178838a102.50033731 102.50033731 0 0 1 102.37887861 102.37887773v179.41699689a102.4892956 102.4892956 0 0 1-102.37887861 102.32367011zM164.44512881 618.83421435a61.50241055 61.50241055 0 0 0-61.42511865 61.42511866v179.41699687a61.50241055 61.50241055 0 0 0 61.42511865 61.38095186h179.36178838a61.49136885 61.49136885 0 0 0 61.42511865-61.38095185V680.25933301a61.49136885 61.49136885 0 0 0-61.42511865-61.42511866zM823.05092656 962H643.65601309a102.4892956 102.4892956 0 0 1-102.33471095-102.32367012V680.25933301a102.50033731 102.50033731 0 0 1 102.33471094-102.37887774h179.39491348a102.50033731 102.50033731 0 0 1 102.37887862 102.37887773v179.41699689a102.4892956 102.4892956 0 0 1-102.37887862 102.32367011zM643.65601309 618.83421435a61.49136885 61.49136885 0 0 0-61.42511866 61.42511866v179.41699687a61.49136885 61.49136885 0 0 0 61.42511865 61.38095186h179.39491348a61.49136885 61.49136885 0 0 0 61.42511865-61.38095185V680.25933301a61.49136885 61.49136885 0 0 0-61.42511865-61.42511866zM733.29274092 520.20952315a101.6722081 101.6722081 0 0 1-72.37851065-29.88995098L534.07792989 363.49431348a102.51137901 102.51137901 0 0 1-1e-8-144.77910381L660.91423027 91.88995098a102.5776292 102.5776292 0 0 1 144.75702041-1e-8l126.83630039 126.8252587a102.51137901 102.51137901 0 0 1 0 144.77910381L805.67125068 490.31957217a101.58387451 101.58387451 0 0 1-72.37850976 29.88995098z m0-417.25576318a61.02761661 61.02761661 0 0 0-43.42710675 17.88759492L563.05141807 247.66661357a61.50241055 61.50241055 0 0 0 0 86.876296l126.81421611 126.82525869c23.08824756 23.09928925 63.79908926 23.05512246 86.85421259 0l126.8363004-126.82525869a61.50241055 61.50241055 0 0 0 0-86.876296L776.71984678 120.84135489a60.99449151 60.99449151 0 0 0-43.42710586-17.88759492z" p-id="1289"></path></svg>