<?xml version="1.0" standalone="no"?><!DOCTYPE svg PUBLIC "-//W3C//DTD SVG 1.1//EN" "http://www.w3.org/Graphics/SVG/1.1/DTD/svg11.dtd"><svg t="1616841257850" class="icon" viewBox="0 0 1033 1024" version="1.1" xmlns="http://www.w3.org/2000/svg" p-id="1808" xmlns:xlink="http://www.w3.org/1999/xlink" width="201.7578125" height="200"><defs><style type="text/css"></style></defs><path d="M971.93736969 501.37167594l-16.04287688 16.04287687c-4.58367938 4.58367938-11.4591975 4.58367938-16.05462937 0l-34.37759344-32.08575281v318.64796719c0 103.15628531-84.82156875 187.97785406-187.97785406 187.97785406H293.38832375c-105.448125 2.29183969-190.26969375-82.52973-190.26969469-185.68601437V485.3288l-32.09750625 32.08575281c-4.58367938 4.58367938-11.4591975 4.58367938-16.04287687 0l-16.04287688-16.04287687c-4.58367938-4.58367938-4.58367938-11.4591975 0-16.04287594L490.53353562 33.71888c2.29183969-2.29183969 9.16735781-2.29183969 13.75103813 0 4.58367938-2.29183969 11.4591975-2.29183969 16.05462938 0l451.59816656 451.60992c4.58367938 4.58367938 4.58367938 11.4591975 0 16.04287594zM410.29564625 923.17592937c0 9.16735781 2.29183969 16.05462938 2.29183969 22.93014844H618.91180906c2.29183969-6.87551906 2.29183969-16.05462938 2.29183969-22.93014844v-259.03663312c0-52.7240625-41.264865-93.9889275-93.98892656-93.9889275h-22.93014844c-52.7240625 0-93.9889275 41.264865-93.9889275 93.9889275v259.03663312zM857.32188688 439.48025562L504.28457375 86.454695 151.25901312 439.48025562v366.78835126c0 77.94605062 64.18326 142.12931063 142.12931063 142.12931062h73.35061781c-2.29183969-6.87551906-2.29183969-16.04287688-2.29183969-22.91839594V664.12754281c0-77.94605062 64.18326-142.12931063 142.12931063-142.12931062h22.91839594c77.94605062 0 142.12931063 64.18326 142.12931062 142.12931062v259.03663313c0 9.16735781 0 16.05462938-2.29183969 22.93014843h50.43222282c77.94605062 0 142.12931063-64.18326 142.12931062-142.12931062V439.48025562h-4.57192594z m-1e-8 1e-8" p-id="1809"></path></svg>