<?xml version="1.0" standalone="no"?><!DOCTYPE svg PUBLIC "-//W3C//DTD SVG 1.1//EN" "http://www.w3.org/Graphics/SVG/1.1/DTD/svg11.dtd"><svg t="1616841220806" class="icon" viewBox="0 0 1030 1024" version="1.1" xmlns="http://www.w3.org/2000/svg" p-id="1679" xmlns:xlink="http://www.w3.org/1999/xlink" width="201.171875" height="200"><defs><style type="text/css"></style></defs><path d="M966.416 446.3552L603.344 68.384C580.7792 44.9168 550.6256 32 518.3024 32S455.8256 44.9168 433.2656 68.384L70.1936 446.3552c-37.464 39.0144-32.64 72.7344-26.448 86.8224 4.4112 9.9936 19.3152 37.464 62.2464 37.464l53.2176 0 0 290.7744c0 66.0144 47.4 128.1744 114.7632 128.1744l61.0752 0L428.528 989.5904l0-68.3232 0-239.4c0-32.9952-4.9968-51.3744 28.6992-51.3744l61.0752 0 61.0752 0c33.6912 0 28.6992 18.3792 28.6992 51.3744l0 239.4 0 68.3232 93.4848 0 61.08 0c67.3584 0 114.7536-62.16 114.7536-128.1744l0-290.7744 53.2224 0c42.9168 0 57.8304-27.4704 62.2464-37.464C999.0656 519.0944 1003.88 485.3696 966.416 446.3552z" p-id="1680"></path></svg>