<?xml version="1.0" standalone="no"?><!DOCTYPE svg PUBLIC "-//W3C//DTD SVG 1.1//EN" "http://www.w3.org/Graphics/SVG/1.1/DTD/svg11.dtd"><svg t="1616841149677" class="icon" viewBox="0 0 1024 1024" version="1.1" xmlns="http://www.w3.org/2000/svg" p-id="1417" xmlns:xlink="http://www.w3.org/1999/xlink" width="200" height="200"><defs><style type="text/css"></style></defs><path d="M976.4375 243.59375c-4.3125-5.53125-10.96875-9.09375-18-9.09375L220.625 234.5 189.3125 69.96875C187.25 59.1875 177.78125 51.6875 166.71875 51.6875L63.875 51.6875C51.21875 51.6875 41 62 41 74.65625S51.21875 97.625 63.875 97.625l83.90625 0L177.3125 262.0625c0 0.09375 0 0.1875 0 0.375l92.625 481.5C272 754.71875 282.3125 762.3125 293.28125 762.3125l550.5 0c12.65625 0 22.96875-10.3125 22.96875-22.96875s-10.3125-22.96875-22.96875-22.96875L312.21875 716.375l-14.15625-72.375 574.03125 3c0 0 0 0 0 0 10.59375 0 19.875-8.90625 22.3125-19.21875l86.25-364.6875C982.34375 256.15625 980.75 249.03125 976.4375 243.59375zM854 597.96875l-564.65625-1.125-41.8125-219.28125L229.34375 281.375l700.125 0L854 597.96875z" p-id="1418"></path><path d="M363.03125 809.5625c-44.25 0-80.25 36-80.25 80.25s36 80.25 80.25 80.25c44.25 0 80.25-36 80.25-80.25S407.28125 809.5625 363.03125 809.5625zM363.03125 924.3125c-18.9375 0-34.40625-15.46875-34.40625-34.40625 0-18.9375 15.46875-34.40625 34.40625-34.40625 18.9375 0 34.40625 15.46875 34.40625 34.40625C397.4375 908.84375 381.96875 924.3125 363.03125 924.3125z" p-id="1419"></path><path d="M752.9375 809.5625c-44.25 0-80.25 36-80.25 80.25s36 80.25 80.25 80.25c44.25 0 80.25-36 80.25-80.25S797.28125 809.5625 752.9375 809.5625zM752.9375 924.3125c-18.9375 0-34.40625-15.46875-34.40625-34.40625 0-18.9375 15.46875-34.40625 34.40625-34.40625 18.9375 0 34.40625 15.46875 34.40625 34.40625C787.34375 908.84375 771.96875 924.3125 752.9375 924.3125z" p-id="1420"></path></svg>