<?xml version="1.0" standalone="no"?><!DOCTYPE svg PUBLIC "-//W3C//DTD SVG 1.1//EN" "http://www.w3.org/Graphics/SVG/1.1/DTD/svg11.dtd"><svg t="1616841192178" class="icon" viewBox="0 0 1024 1024" version="1.1" xmlns="http://www.w3.org/2000/svg" p-id="1548" xmlns:xlink="http://www.w3.org/1999/xlink" width="200" height="200"><defs><style type="text/css"></style></defs><path d="M972.72762687 189.44844969c-9.33830906-10.62-21.64676344-16.24082906-35.62256812-16.24082907l-705.4097325 0C222.0327575 118.80866375 173.50214188 76.89755938 118.11409437 76.89755938L54.86130031 76.89755938c-12.09451969 0-21.88180406 9.78728437-21.88180406 21.88180406s9.78728437 21.88180406 21.88180406 21.88180406l63.252795 0c35.70795 0 67.07772094 27.99382031 71.60776969 64.8338025l31.15583625 179.82048187 55.23934781 388.93854c3.20518687 26.73227531 26.77544625 48.46538063 52.54645313 48.46538063l571.28115094 0c12.09451969 0 21.88180406-9.78728437 21.88180406-21.88180406 0-12.09451969-9.78728437-21.88180406-21.88180406-21.88180407L328.66350219 758.95576438c-3.119805 0-8.4403575-4.44466688-9.14643844-10.38495938l-10.76102438-75.75216 105.42580126-8.89125188 455.48190281-33.63479531c29.89525125-0.17076469 56.09412844-22.99273125 59.47007906-50.85799781l58.82923406-336.79789125C990.31442281 223.08324594 984.45855312 202.67596156 972.72762687 189.44844969z" p-id="1549"></path><path d="M828.35223312 870.86580875c-32.56895813 0-59.06811187 26.49915375-59.06811187 59.06427469 0 32.54689313 26.51258438 59.04124969 59.06811188 59.04124969 32.52770625 0 59.03645344-26.50011281 59.03645343-59.04124969C887.38868656 897.3649625 860.89337 870.86580875 828.35223312 870.86580875z" p-id="1550"></path><path d="M365.18402094 870.86580875c-32.56895813 0-59.06715281 26.49915375-59.06715282 59.06427469 0 32.54689313 26.51258438 59.04124969 59.06715282 59.04124969 32.52770625 0 59.03645344-26.50011281 59.03645343-59.04124969C424.22047437 897.3649625 397.72707687 870.86580875 365.18402094 870.86580875z" p-id="1551"></path></svg>