<?xml version="1.0" standalone="no"?><!DOCTYPE svg PUBLIC "-//W3C//DTD SVG 1.1//EN" "http://www.w3.org/Graphics/SVG/1.1/DTD/svg11.dtd"><svg class="icon" width="200px" height="200.00px" viewBox="0 0 1024 1024" version="1.1" xmlns="http://www.w3.org/2000/svg"><path fill="#333333" d="M471.04 867.328a87.552 87.552 0 0 1-87.04 84.992H276.48A126.464 126.464 0 0 1 153.6 824.832v-358.4a113.152 113.152 0 0 1 40.96-94.208l256-235.52a128 128 0 0 1 168.96-3.584L870.4 348.16a121.856 121.856 0 0 1 46.08 97.28v379.392a127.488 127.488 0 0 1-128 127.488h-107.52a82.944 82.944 0 0 1-81.92-84.992v-211.456H471.04z" /></svg>